<mxfile host="app.diagrams.net" modified="2023-03-13T11:29:12.979Z" agent="5.0 (Windows NT 10.0; Win64; x64) AppleWebKit/537.36 (KHTML, like Gecko) Chrome/110.0.0.0 Safari/537.36" version="20.8.4" etag="k7ElgiRwFNDFNzb-RDVI" type="github">
  <diagram id="jYWOHv2KQ475p7FsRvHT" name="第 1 页">
    <mxGraphModel dx="989" dy="521" grid="1" gridSize="10" guides="1" tooltips="1" connect="1" arrows="1" fold="1" page="1" pageScale="1" pageWidth="827" pageHeight="1169" math="0" shadow="0">
      <root>
        <mxCell id="0" />
        <mxCell id="1" parent="0" />
        <mxCell id="IrWYmvIqVPGdALxaulg8-1" value="" style="shape=partialRectangle;whiteSpace=wrap;html=1;bottom=0;right=0;fillColor=none;" vertex="1" parent="1">
          <mxGeometry x="440" y="280" width="200" height="110" as="geometry" />
        </mxCell>
        <mxCell id="IrWYmvIqVPGdALxaulg8-117" style="edgeStyle=orthogonalEdgeStyle;rounded=0;orthogonalLoop=1;jettySize=auto;html=1;exitX=0;exitY=0;exitDx=0;exitDy=0;entryX=0;entryY=1;entryDx=0;entryDy=0;endArrow=none;endFill=0;" edge="1" parent="1" source="IrWYmvIqVPGdALxaulg8-115" target="IrWYmvIqVPGdALxaulg8-1">
          <mxGeometry relative="1" as="geometry">
            <Array as="points">
              <mxPoint x="360" y="400" />
              <mxPoint x="440" y="400" />
            </Array>
          </mxGeometry>
        </mxCell>
        <mxCell id="IrWYmvIqVPGdALxaulg8-115" value="" style="shape=partialRectangle;whiteSpace=wrap;html=1;bottom=0;right=0;fillColor=none;rotation=-180;direction=east;flipV=1;" vertex="1" parent="1">
          <mxGeometry x="160" y="280" width="200" height="110" as="geometry" />
        </mxCell>
        <mxCell id="IrWYmvIqVPGdALxaulg8-121" value="" style="endArrow=none;html=1;rounded=0;" edge="1" parent="1">
          <mxGeometry width="50" height="50" relative="1" as="geometry">
            <mxPoint x="160" y="200" as="sourcePoint" />
            <mxPoint x="640" y="200" as="targetPoint" />
          </mxGeometry>
        </mxCell>
        <mxCell id="IrWYmvIqVPGdALxaulg8-122" value="" style="shape=partialRectangle;whiteSpace=wrap;html=1;bottom=0;right=0;fillColor=none;" vertex="1" parent="1">
          <mxGeometry x="440" y="560" width="200" height="110" as="geometry" />
        </mxCell>
        <mxCell id="IrWYmvIqVPGdALxaulg8-123" style="edgeStyle=orthogonalEdgeStyle;rounded=0;orthogonalLoop=1;jettySize=auto;html=1;exitX=0;exitY=0;exitDx=0;exitDy=0;entryX=0;entryY=1;entryDx=0;entryDy=0;endArrow=none;endFill=0;" edge="1" parent="1" source="IrWYmvIqVPGdALxaulg8-124" target="IrWYmvIqVPGdALxaulg8-122">
          <mxGeometry relative="1" as="geometry">
            <Array as="points">
              <mxPoint x="360" y="680" />
              <mxPoint x="440" y="680" />
            </Array>
          </mxGeometry>
        </mxCell>
        <mxCell id="IrWYmvIqVPGdALxaulg8-124" value="" style="shape=partialRectangle;whiteSpace=wrap;html=1;bottom=0;right=0;fillColor=none;rotation=-180;direction=east;flipV=1;" vertex="1" parent="1">
          <mxGeometry x="160" y="560" width="200" height="110" as="geometry" />
        </mxCell>
        <mxCell id="IrWYmvIqVPGdALxaulg8-125" value="" style="endArrow=none;html=1;rounded=0;" edge="1" parent="1">
          <mxGeometry width="50" height="50" relative="1" as="geometry">
            <mxPoint x="160" y="480" as="sourcePoint" />
            <mxPoint x="639.9999999999998" y="480" as="targetPoint" />
          </mxGeometry>
        </mxCell>
        <mxCell id="IrWYmvIqVPGdALxaulg8-126" value="" style="shape=partialRectangle;whiteSpace=wrap;html=1;bottom=0;right=0;fillColor=none;" vertex="1" parent="1">
          <mxGeometry x="440" y="840" width="200" height="110" as="geometry" />
        </mxCell>
        <mxCell id="IrWYmvIqVPGdALxaulg8-127" style="edgeStyle=orthogonalEdgeStyle;rounded=0;orthogonalLoop=1;jettySize=auto;html=1;exitX=0;exitY=0;exitDx=0;exitDy=0;entryX=0;entryY=1;entryDx=0;entryDy=0;endArrow=none;endFill=0;" edge="1" parent="1" source="IrWYmvIqVPGdALxaulg8-128" target="IrWYmvIqVPGdALxaulg8-126">
          <mxGeometry relative="1" as="geometry">
            <Array as="points">
              <mxPoint x="360" y="960" />
              <mxPoint x="440" y="960" />
            </Array>
          </mxGeometry>
        </mxCell>
        <mxCell id="IrWYmvIqVPGdALxaulg8-128" value="" style="shape=partialRectangle;whiteSpace=wrap;html=1;bottom=0;right=0;fillColor=none;rotation=-180;direction=east;flipV=1;" vertex="1" parent="1">
          <mxGeometry x="160" y="840" width="200" height="110" as="geometry" />
        </mxCell>
        <mxCell id="IrWYmvIqVPGdALxaulg8-129" value="" style="endArrow=none;html=1;rounded=0;" edge="1" parent="1">
          <mxGeometry width="50" height="50" relative="1" as="geometry">
            <mxPoint x="160" y="760.0000000000001" as="sourcePoint" />
            <mxPoint x="639.9999999999998" y="760.0000000000001" as="targetPoint" />
          </mxGeometry>
        </mxCell>
        <mxCell id="IrWYmvIqVPGdALxaulg8-130" value="" style="shape=partialRectangle;whiteSpace=wrap;html=1;bottom=0;right=0;fillColor=none;" vertex="1" parent="1">
          <mxGeometry x="440" y="1120" width="200" height="110" as="geometry" />
        </mxCell>
        <mxCell id="IrWYmvIqVPGdALxaulg8-131" style="edgeStyle=orthogonalEdgeStyle;rounded=0;orthogonalLoop=1;jettySize=auto;html=1;exitX=0;exitY=0;exitDx=0;exitDy=0;entryX=0;entryY=1;entryDx=0;entryDy=0;endArrow=none;endFill=0;" edge="1" parent="1" source="IrWYmvIqVPGdALxaulg8-132" target="IrWYmvIqVPGdALxaulg8-130">
          <mxGeometry relative="1" as="geometry">
            <Array as="points">
              <mxPoint x="360" y="1240" />
              <mxPoint x="440" y="1240" />
            </Array>
          </mxGeometry>
        </mxCell>
        <mxCell id="IrWYmvIqVPGdALxaulg8-132" value="" style="shape=partialRectangle;whiteSpace=wrap;html=1;bottom=0;right=0;fillColor=none;rotation=-180;direction=east;flipV=1;" vertex="1" parent="1">
          <mxGeometry x="160" y="1120" width="200" height="110" as="geometry" />
        </mxCell>
        <mxCell id="IrWYmvIqVPGdALxaulg8-133" value="" style="endArrow=none;html=1;rounded=0;" edge="1" parent="1">
          <mxGeometry width="50" height="50" relative="1" as="geometry">
            <mxPoint x="160" y="1040" as="sourcePoint" />
            <mxPoint x="639.9999999999998" y="1040" as="targetPoint" />
          </mxGeometry>
        </mxCell>
        <mxCell id="IrWYmvIqVPGdALxaulg8-134" value="1. 看左倒车镜线到肩膀，方向盘往右打一圈加一立" style="text;html=1;strokeColor=none;fillColor=none;align=center;verticalAlign=middle;whiteSpace=wrap;rounded=0;" vertex="1" parent="1">
          <mxGeometry x="170" y="160" width="280" height="30" as="geometry" />
        </mxCell>
        <mxCell id="IrWYmvIqVPGdALxaulg8-135" value="" style="rounded=0;whiteSpace=wrap;html=1;rotation=90;" vertex="1" parent="1">
          <mxGeometry x="490" y="30" width="74" height="50" as="geometry" />
        </mxCell>
        <mxCell id="IrWYmvIqVPGdALxaulg8-137" value="" style="endArrow=none;dashed=1;html=1;rounded=0;arcSize=20;endSize=6;startSize=6;jumpSize=6;" edge="1" parent="1">
          <mxGeometry width="50" height="50" relative="1" as="geometry">
            <mxPoint x="360" y="280" as="sourcePoint" />
            <mxPoint x="440" y="280" as="targetPoint" />
          </mxGeometry>
        </mxCell>
      </root>
    </mxGraphModel>
  </diagram>
</mxfile>
